<svg width="0" height="0" class="hidden">
  <symbol fill="none" xmlns="http://www.w3.org/2000/svg" viewBox="0 0 34 34" id="facebook">
    <path d="M17 34c9.389 0 17-7.611 17-17S26.389 0 17 0 0 7.611 0 17s7.611 17 17 17z" fill="#FEA5BB"></path>
    <path d="M21.724 16.98H18.95V27.2h-4.202V16.98H12.75v-3.59h1.998v-2.324c0-1.662.785-4.265 4.24-4.265l3.112.013V10.3h-2.258c-.37 0-.891.187-.891.98v2.113h3.14l-.367 3.588z" fill="#fff"></path>
  </symbol>
  <symbol fill="none" xmlns="http://www.w3.org/2000/svg" viewBox="0 0 34 34" id="telegram">
    <circle cx="17" cy="17" r="17" fill="#FEA5BB"></circle>
    <path d="M13.671 19.524l-.337 4.43c.483 0 .692-.194.943-.426l2.263-2.02 4.69 3.207c.86.447 1.467.211 1.7-.739l3.078-13.464v-.001c.274-1.187-.46-1.651-1.297-1.36L6.614 15.617c-1.235.448-1.217 1.09-.21 1.382l4.627 1.343 10.746-6.276c.506-.313.966-.14.588.173l-8.693 7.285z" fill="#fff"></path>
  </symbol>
  <symbol fill="none" xmlns="http://www.w3.org/2000/svg" viewBox="0 0 34 34" id="github">
    <circle cx="17" cy="17" r="17" fill="#FEA5BB"></circle>
    <path d="M17 7C11.507 7 7 11.507 7 17c0 4.687 3.289 8.945 7.656 10v-3.308a2.45 2.45 0 01-1.271-.033c-.591-.174-1.071-.568-1.428-1.168-.227-.383-.63-.8-1.05-.769l-.103-1.167c.909-.078 1.694.554 2.16 1.337.208.349.447.553.753.643.295.088.613.046.983-.085.093-.741.433-1.018.69-1.41-2.605-.388-3.643-1.77-4.055-2.86-.546-1.449-.253-3.258.712-4.402.019-.022.053-.08.04-.12-.443-1.338.096-2.444.116-2.561.511.15.594-.152 2.22.835l.28.169c.118.07.08.03.198.02A8.484 8.484 0 0117 11.828c.71.009 1.42.11 2.127.302l.091.01c-.008-.002.025-.006.08-.039 2.03-1.23 1.957-.828 2.502-1.005.02.118.551 1.242.113 2.562-.059.182 1.76 1.848.752 4.522-.412 1.09-1.45 2.473-4.054 2.861.334.51.735.78.733 1.83V27C23.71 25.945 27 21.687 27 17c0-5.493-4.507-10-10-10z" fill="#fff"></path>
  </symbol>
</svg>